<?xml version="1.0"?>
<svg width="2048" height="2048" xmlns="http://www.w3.org/2000/svg" xmlns:svg="http://www.w3.org/2000/svg" version="1.1">
 <g class="layer">
  <title>Layer 1</title>
  <path d="m1822,138l19,0l8,6l5,7l4,10l1,8l-3,24l0,5l-3,8l-2,8l-3,8l-2,6l-1,4l-9,19l-8,16l-6,13l-3,3l-5,9l-7,10l-8,11l-11,16l-9,11l-11,12l-9,11l-11,11l-3,4l-2,0l-2,4l-8,9l-8,7l-8,8l-5,4l-5,5l-6,5l-5,5l-2,3l-5,3l-9,9l-5,3l-5,5l-2,0l-2,4l-11,9l-12,11l-11,9l-14,12l-2,1l-1,3l3,1l0,2l2,0l2,5l5,5l3,2l2,5l7,7l0,4l4,2l0,2l3,0l0,5l2,0l2,3l0,3l2,0l0,2l2,0l3,3l4,7l2,5l4,4l1,4l2,0l3,6l1,5l3,0l2,3l0,3l2,0l2,6l2,2l0,3l3,0l2,6l2,2l0,3l2,0l2,5l3,3l2,5l2,4l0,3l2,0l0,5l3,1l0,3l2,0l2,3l2,10l2,0l0,3l3,1l1,4l5,11l2,4l0,4l2,0l3,5l1,5l3,6l0,4l3,1l3,10l3,7l2,5l0,5l3,0l2,8l2,7l2,4l1,5l1,1l0,6l3,1l4,16l2,7l0,5l2,0l0,9l3,1l1,7l1,1l1,8l3,9l1,8l2,6l2,7l0,8l2,0l1,12l1,1l1,13l1,2l1,11l2,2l1,16l1,2l1,22l1,1l1,26l1,1l0,86l-2,0l0,25l-1,1l-1,21l-1,1l-1,19l-3,1l0,10l-1,1l-1,15l-1,1l-1,10l-2,7l-1,5l-1,10l-3,1l-1,9l-1,8l-1,1l-1,7l-2,7l-3,9l-2,7l-3,9l-1,7l-1,1l-1,8l-3,0l0,5l-2,5l-2,0l0,6l-3,9l-1,6l-2,0l-2,4l-2,7l-2,4l-3,12l-2,1l-3,9l-2,0l-1,5l-2,4l-2,0l0,6l-3,5l-3,8l-3,5l-2,0l-1,5l-5,13l-3,5l-2,0l-1,4l-7,14l-4,6l-4,7l-1,4l-3,0l-1,4l-3,7l-3,2l-3,5l-6,8l-2,5l-2,0l0,4l-2,1l-1,3l-2,0l-2,5l-2,2l-2,5l-5,4l-2,5l-8,9l-3,7l-4,2l-6,9l-6,7l-8,10l-5,5l-3,5l-8,7l-7,8l-3,3l-1,3l-3,0l-1,4l-19,19l-8,6l-2,4l-6,3l-6,8l-6,4l-4,5l-3,0l-5,5l-5,6l-8,5l-5,5l-6,4l-9,8l-7,4l-5,5l-7,4l-4,2l-5,5l-3,1l-3,3l-3,2l-3,0l-1,3l-9,5l-4,3l-4,0l-2,4l-6,4l-5,1l-1,3l-15,8l-9,5l-2,2l-5,2l-4,0l0,2l-4,0l-1,3l-3,0l0,2l-13,5l-5,1l-1,3l-4,2l-4,0l0,2l-5,2l-3,0l0,3l-16,4l0,2l-10,3l-2,2l-10,3l-5,3l-12,3l-1,2l-5,2l-9,2l-4,0l0,2l-5,0l-1,2l-9,1l-1,2l-4,2l-8,1l-1,1l-11,2l-5,2l-1,1l-7,1l-1,1l-7,1l-8,3l-10,1l-1,1l-10,0l-1,3l-21,3l-1,1l-12,1l-1,1l-12,1l-2,1l-16,0l-1,3l-21,1l-1,1l-26,1l-1,1l-89,0l-1,-1l-24,-1l-3,-1l-20,-1l-2,-2l-16,-1l-2,-1l-12,-1l-1,-1l-15,-1l-6,-2l-13,-3l-1,-1l-12,-2l-9,-1l-9,-3l-14,-3l-4,-1l0,-2l-8,-1l-7,-1l-8,-3l-5,-1l0,-2l-13,-3l-21,-6l-1,-2l-10,-4l-11,-3l-7,-2l0,-3l-5,-1l-16,-6l-3,-1l0,-3l-5,-1l-6,-1l-2,-3l-7,-1l0,-3l-4,0l0,-2l-5,-1l-10,-4l-3,-4l-2,0l0,-2l-5,0l-4,-3l-5,-2l-4,-1l-2,-4l-10,-4l-7,-5l-5,-3l0,-2l-5,-1l-5,-3l-2,-2l-7,-3l-5,-4l-3,-3l-4,-3l-6,-2l-1,-2l-4,-2l-2,-3l-7,-3l-4,-4l-3,-1l-5,-5l-7,-4l-1,-4l-4,0l0,-2l-4,-1l0,-2l-3,-1l0,-3l-5,-1l-5,-4l-3,-4l0,-2l-6,-1l-5,-6l1,-3l8,-7l14,-13l10,-8l7,-7l10,-8l10,-9l3,0l2,3l5,3l4,2l0,2l5,1l8,6l6,4l4,2l1,2l14,7l21,10l5,5l7,5l5,2l6,4l4,2l6,2l0,3l4,0l2,3l9,3l4,3l6,2l8,4l10,3l0,2l4,0l0,2l7,1l8,4l5,1l0,2l5,0l6,3l5,1l0,2l5,0l0,2l6,1l7,1l6,2l0,2l5,0l1,1l7,1l1,1l7,1l5,2l0,2l9,0l1,1l7,1l8,3l9,1l0,2l11,0l0,2l7,1l11,1l4,2l10,1l10,3l15,1l1,1l20,1l1,1l12,1l1,1l119,0l1,-1l10,-1l1,-1l22,0l0,-2l15,-1l1,-1l10,-2l12,-1l1,-2l11,-1l8,-3l9,0l0,-2l11,-1l6,-3l8,0l0,-2l10,0l0,-2l4,-2l7,-1l1,-1l7,-1l4,-1l1,-3l5,1l0,-2l7,-1l5,-3l12,-4l5,0l0,-2l7,-2l16,-6l6,-2l1,-2l9,-3l8,-4l3,-2l5,0l0,-2l7,-1l0,-2l5,-2l2,-2l5,-1l3,-3l10,-6l4,-1l2,-2l7,-3l3,-3l9,-3l1,-3l8,-4l1,-2l4,0l0,-2l6,-1l1,-3l8,-4l10,-8l5,-3l3,-3l4,0l0,-2l7,-4l8,-7l3,-3l5,-3l5,-5l7,-4l4,-5l4,-1l6,-7l4,-3l2,0l2,-4l9,-9l5,-1l2,-4l17,-17l8,-9l8,-7l6,-8l8,-8l2,0l2,-4l5,-8l4,-4l2,0l2,-5l14,-18l3,-5l4,-2l1,-5l2,0l1,-3l2,0l-1,-3l4,-3l2,0l1,-5l4,-4l3,-5l2,0l1,-6l7,-11l6,-10l2,-5l3,-1l1,-4l5,-10l2,0l1,-5l2,0l1,-5l9,-18l3,0l-1,-6l3,-5l2,-1l3,-10l3,-1l1,-5l5,-10l3,-8l2,-6l2,-2l3,-11l3,-5l1,-5l2,-8l1,-2l2,0l0,-7l2,0l1,-7l3,-11l2,-6l2,0l0,-6l2,0l0,-8l1,-5l4,-10l0,-9l2,-7l2,0l0,-7l1,-1l1,-12l1,-1l1,-7l1,-5l2,-5l1,-14l2,0l-1,-13l2,0l0,-12l2,0l0,-21l1,-1l1,-24l2,-1l-1,-89l-2,0l-1,-2l-1,-22l-1,-1l-1,-20l-1,-1l-1,-11l-3,-10l-1,-4l-1,-13l-1,-2l-1,-9l-1,-1l0,-7l-2,0l0,-12l-2,0l-2,-10l-4,-14l-3,-8l0,-7l-2,0l-3,-14l-3,-7l-2,-5l-3,-12l-1,-1l0,-6l-2,0l0,-4l-3,-1l0,-4l-2,-1l-3,-10l-3,-7l-1,-5l-3,-2l-3,-12l-3,-4l-4,-10l-3,-3l-3,-10l-3,-2l-5,-10l-6,-10l-6,-13l-2,-1l-5,-10l-1,-5l-2,0l-1,-5l-3,-1l-3,-7l-3,-3l-5,-10l-10,-13l-2,-4l-5,-5l-7,6l-5,6l-11,9l-8,7l-11,9l-12,10l-3,1l-5,5l-4,3l-2,0l0,2l-6,3l-4,4l-12,8l-6,5l-10,6l-4,4l-5,3l-19,13l-16,10l-3,3l-14,9l-2,0l0,2l-9,5l-3,3l-27,18l-6,5l-9,5l-24,16l-11,7l-12,9l-8,4l-24,16l-7,4l-9,6l-19,12l-5,4l-11,6l-15,10l-5,2l-6,2l0,2l-20,12l-14,9l-7,5l-12,6l-15,10l-11,7l-10,7l-5,3l-5,4l-11,6l-16,9l-16,8l-11,6l-19,12l-7,3l-12,8l-7,4l-5,4l-14,8l-5,3l-5,0l-9,6l-10,5l-17,9l-6,4l-10,4l-7,5l-6,2l-8,5l-7,3l-6,4l-6,2l-16,8l-15,7l-9,4l-11,5l-12,5l-9,4l-2,0l0,2l-26,10l-16,8l-12,5l-8,4l-5,2l-5,3l-16,6l-10,4l-5,0l-1,3l-30,10l-7,4l-21,7l-9,4l-42,14l-8,4l-14,4l-18,6l-11,3l-19,6l-26,7l-25,6l-36,6l-16,2l-40,0l-8,-3l-5,-3l-6,-4l-8,-10l-1,-4l0,-10l4,-6l10,-5l17,-3l9,0l13,-3l28,-6l24,-6l37,-12l10,-4l20,-7l3,-2l9,-3l14,-7l12,-5l9,-4l3,-2l6,-2l5,-3l6,-2l5,-3l10,-4l8,-4l10,-4l9,-5l6,-2l10,-5l16,-7l8,-5l9,-3l14,-7l28,-13l16,-8l15,-8l7,-4l7,-3l16,-9l8,-4l15,-8l14,-8l8,-5l7,-3l11,-7l14,-7l8,-6l6,-2l13,-8l7,-4l5,-2l11,-7l4,-3l10,-4l25,-15l6,-3l4,-3l14,-7l10,-7l15,-8l6,-5l10,-5l10,-7l18,-11l3,-3l9,-5l10,-6l5,-4l10,-6l3,-3l11,-6l18,-13l9,-5l10,-8l6,-3l11,-8l9,-6l11,-8l13,-9l12,-8l9,-7l15,-10l14,-11l15,-10l11,-9l9,-6l11,-9l13,-10l9,-7l11,-9l14,-11l13,-11l8,-6l5,-5l12,-10l5,-5l4,-1l0,-2l10,-8l5,-5l14,-12l11,-9l5,-5l3,-1l2,-4l15,-13l9,-9l2,0l2,-4l7,-7l8,-7l7,-7l2,0l2,-4l13,-14l2,0l-2,-5l-4,-5l-5,-4l-3,-3l-6,-4l-5,-5l-5,-4l0,-2l-4,-1l0,-3l-5,-1l-3,-4l-5,-2l-8,-8l0,-2l-6,-2l-5,-5l-4,-2l0,-2l-4,-2l-8,-6l-3,-1l-1,-2l-6,-3l-1,-3l-4,0l-2,-3l-6,-3l-6,-5l-5,-2l-6,-4l-5,-2l-2,-2l-8,-3l-2,-3l-9,-4l-1,-3l-4,0l0,-2l-4,-1l-2,-3l-6,-1l0,-2l-5,-1l-1,-3l-9,-2l-3,-2l0,-2l-5,-1l-6,-2l-8,-4l-4,-1l0,-2l-2,0l0,-2l-6,0l-6,-2l-3,-3l-10,-3l-11,-5l-6,-2l-3,-2l-8,-1l0,-2l-5,0l-5,-3l-13,-3l-9,-4l-12,-2l-6,-3l-7,-2l-10,-1l-5,-4l-22,-3l-7,-3l-21,-3l-11,-2l0,-2l-17,0l-1,-1l-20,-1l0,-2l-11,0l-2,-1l-52,-1l-1,-1l-17,-1l0,2l-53,1l-1,1l-9,0l0,2l-24,0l0,2l-17,1l-8,3l-12,1l-2,1l-10,1l-8,3l-9,1l-15,3l-1,2l-12,3l-7,2l-4,2l-20,4l0,2l-6,2l-9,2l-3,2l-11,3l-5,3l-6,0l0,2l-4,0l-1,2l-12,4l-7,4l-12,4l-2,0l0,2l-10,4l-6,3l-7,3l-12,6l-6,4l-7,2l-1,3l-4,0l0,2l-4,1l-3,3l-8,4l-1,2l-4,1l-5,3l-1,2l-8,4l-4,4l-3,1l-2,3l-8,3l-4,5l-5,2l-9,6l-8,6l-3,0l-1,3l-5,2l0,3l-7,3l-2,4l-5,1l-2,4l-2,3l-5,0l-2,5l-10,8l-5,5l-4,5l-6,4l-2,3l-4,0l-1,4l-4,0l-2,4l-17,17l0,4l-4,0l-1,4l-4,5l-6,5l-5,5l-6,9l-5,5l-3,1l-1,5l-6,5l-9,12l-2,0l-2,5l-3,6l-5,6l-6,8l0,2l-3,2l-3,6l-2,0l-1,4l-2,0l0,5l-3,3l-3,5l-4,6l-3,5l-2,5l-2,1l-2,4l-2,0l-1,5l-4,6l-3,7l-6,11l-5,8l-8,19l-4,8l-3,8l-1,4l-2,0l-2,7l-3,8l-3,4l-1,5l-2,6l-1,2l-2,0l-1,14l-4,2l0,7l-2,4l-1,4l-2,5l-1,7l-2,1l-1,7l-4,6l0,5l-1,1l-1,7l-3,7l0,6l-1,2l-1,9l-1,1l-1,7l-2,0l0,9l-2,3l0,11l-3,7l-1,13l-1,1l0,14l-1,2l-1,10l-1,1l-1,22l-2,0l1,40l-1,2l0,44l1,1l1,14l1,28l1,1l1,21l2,10l1,1l2,17l1,1l0,13l2,0l2,9l-3,2l-8,-1l-9,-3l-9,-7l-9,-6l-6,-6l-1,-15l-2,-1l0,-113l2,-1l1,-25l1,-1l1,-17l2,0l0,-15l1,-1l1,-15l1,-2l1,-9l2,0l1,-13l1,-1l1,-10l2,0l0,-9l2,0l0,-9l1,-1l1,-10l3,0l0,-7l1,-1l1,-7l1,-1l1,-8l2,0l0,-7l3,-7l2,0l0,-6l3,-8l3,-12l2,-1l1,-6l2,0l0,-6l3,-7l1,-4l2,0l0,-5l2,-1l1,-5l2,0l0,-5l2,0l0,-5l4,-10l2,-1l1,-6l2,0l0,-4l2,0l0,-5l3,-5l1,-4l2,0l2,-5l5,-12l3,0l1,-6l4,-9l3,-7l4,-4l4,-8l1,-4l5,-2l1,-5l2,-5l2,-2l1,-4l2,0l0,-4l5,-2l0,-5l3,-3l1,-3l2,-1l2,-5l4,-3l3,-7l3,-3l3,-4l2,-5l3,-3l3,0l1,-5l2,-4l4,-4l3,-4l2,0l2,-6l5,-5l3,-1l1,-5l5,-6l2,-1l3,-6l9,-8l3,-6l7,-6l7,-8l22,-22l2,0l2,-4l8,-8l2,0l2,-4l3,-3l2,0l1,-3l7,-7l6,-2l3,-5l7,-6l2,0l0,-3l7,-4l4,-4l3,-1l5,-5l10,-7l2,-3l5,-1l1,-3l3,0l1,-3l7,-6l5,-1l2,-4l5,-2l8,-6l4,-1l4,-4l7,-5l5,-1l0,-3l8,-3l3,-1l1,-3l4,1l1,-3l5,-4l5,0l0,-2l8,-3l3,-4l12,-5l4,-2l1,-2l4,-1l2,-2l3,1l1,-3l4,-1l8,-3l1,-2l8,-4l9,-3l0,-2l7,-2l5,-2l4,0l1,-3l5,1l1,-3l3,0l2,-3l5,1l0,-2l5,-2l6,0l0,-2l7,-2l5,-3l5,-1l4,-2l10,-2l7,-3l7,0l1,-3l5,0l0,-2l8,-1l8,-3l8,-1l1,-1l7,-1l1,-2l9,0l0,-2l8,-1l1,-1l9,-1l9,-2l4,0l0,-2l10,-1l1,-1l11,-1l1,-1l15,0l0,-2l14,-1l1,-1l20,-1l0,-2l27,0l0,-2l106,0l1,1l26,1l5,2l14,1l5,1l11,1l0,2l14,0l1,1l12,1l12,2l2,2l9,1l1,1l7,1l1,1l8,1l1,1l10,1l1,3l6,0l1,1l17,3l0,2l6,0l8,3l0,2l8,0l7,3l12,3l5,2l0,2l13,3l6,3l11,3l1,2l4,0l1,2l10,3l10,4l1,2l14,5l5,3l0,2l5,1l4,1l0,2l4,0l0,2l5,1l4,2l0,2l5,1l6,3l5,2l0,2l4,0l0,3l4,0l0,2l5,1l6,3l0,2l5,1l2,3l10,4l1,4l6,1l5,3l2,3l5,2l1,2l8,4l0,2l4,1l5,4l2,0l2,3l5,2l9,8l4,3l4,1l4,6l8,4l3,5l8,4l0,2l4,1l0,3l5,-5l7,-9l9,-10l7,-9l9,-10l9,-12l11,-13l9,-11l9,-12l7,-8l9,-12l11,-14l13,-18l8,-11l4,-6l8,-11l4,-6l8,-11l8,-12l6,-8l10,-7l11,-6l19,-9l13,-4l20,-8l20,-7l14,-4l17,-5l19,-4z" fill="#AE002F" id="svg_2"/>
  <path d="m972,948l1,2l-10,22l-8,18l-6,10l-8,16l-13,24l-26,44l-9,14l-11,17l-13,20l-12,18l-10,14l-9,13l-11,15l-8,11l-14,19l-9,12l-7,9l-20,26l-9,11l-11,14l-11,13l-11,14l-11,13l-9,11l-13,16l-9,11l-12,14l-9,11l-14,15l-9,10l-7,8l-12,13l-12,12l-7,8l-20,20l-7,8l-5,5l-14,12l-15,13l-11,9l-30,26l-11,10l-11,9l-13,11l-14,11l-15,12l-11,8l-15,11l-24,16l-10,7l-12,7l-15,9l-16,8l-23,10l-14,5l-16,3l-2,1l-29,0l-17,-5l-5,-3l-16,-10l-11,-9l-9,-9l-11,-14l-7,-10l-4,-11l0,-10l3,-9l10,-6l32,-9l17,-6l36,-15l5,-3l10,-4l16,-8l28,-15l17,-10l6,-4l3,0l0,-2l6,-3l16,-10l11,-7l10,-7l14,-9l14,-10l19,-14l16,-12l9,-7l14,-11l16,-13l15,-14l12,-9l12,-12l8,-7l12,-11l9,-7l11,-9l5,-4l5,-5l13,-12l11,-10l8,-7l50,-50l7,-8l13,-13l7,-8l15,-16l9,-11l5,-5l2,-3l2,0l2,-4l10,-10l9,-11l9,-10l3,-5l5,-5l10,-11l9,-11l3,-5l5,-5l18,-22l5,-7l2,0l2,-4l7,-9l20,-26l4,-5l12,-16l13,-17l13,-18l6,-8l3,-2l5,0l1,-3l9,-5l8,-3l9,-5l8,-5l10,-5l11,-7l5,-3l2,0l1,-3l4,-3z" fill="#AE002F" id="svg_3"/>
  <path d="m310,803l30,0l17,2l34,7l20,6l20,7l25,11l16,8l11,6l16,10l18,13l11,9l12,11l9,9l9,11l9,14l5,11l1,11l-2,13l-4,9l-10,15l-12,14l-13,10l-16,10l-7,3l-9,3l-12,3l-7,1l-11,0l-17,-4l-17,-6l-15,-13l-5,-6l-6,-10l-4,-13l-1,-5l-3,-17l0,-6l-1,-6l0,-19l1,-10l1,-21l-2,-9l-5,-17l-6,-15l-7,-10l-9,-7l-10,-5l-17,-7l-27,-5l-5,-2l-17,-2l-3,-1l2,-7l6,-3l7,-1z" fill="#AE002F" id="svg_4"/>
  <path d="m0,0l5,1l10,8l7,4l5,14l1,9l4,3l1,7l2,1l2,6l2,2l0,6l2,0l1,6l3,4l3,9l5,10l3,7l1,6l2,1l8,16l3,3l1,4l5,9l0,2l2,0l4,8l3,7l3,3l1,3l2,1l6,12l0,3l3,1l7,11l12,16l6,10l3,2l4,7l4,4l7,9l3,5l3,2l0,3l4,1l4,7l8,10l5,3l2,5l2,2l-1,4l-5,2l0,2l-13,10l-15,10l-14,9l-6,3l-1,2l-4,0l0,-2l-3,-1l-2,-5l-4,-3l-2,-7l-4,-2l-3,-4l0,-2l-2,0l-2,-6l-5,-3l-1,-5l-3,-2l-2,-4l0,-3l-4,-2l-3,-5l-3,-7l-4,-3l-3,-7l-3,-5l0,-4l-3,-1l-1,-3l-3,-2l-4,-10l0,-4l-5,-2l-4,-10l-2,-4l0,-3l-3,-1l-3,-8l-1,-5l-2,0l-1,-4l-2,0l-4,-10l0,-3l-3,-1l1,-6l-2,0l-1,-3l-2,-1l-2,-5l-2,-8l-4,-8l-2,-6l-1,-4l-2,0l-1,-7l-3,-7l-3,-10l-2,-1l-1,-6l-2,-2l-1,-5l-4,-7l-2,-7l-1,-7l-2,-7l-6,-17l-1,-13l3,-5l10,-9l6,-5l4,-5l2,-1z" fill="#AE002F" id="svg_5" transform="translate(278,1163)"/>
  <path d="m961,216l106,0l1,1l26,1l5,2l14,1l-1,3l-10,1l-2,-1l-5,-1l-4,-2l0,-2l-29,1l-1,-1l-37,0l-13,1l-16,0l-18,2l-17,1l-3,-3l-3,1l-1,1l-8,0l-1,4l2,3l12,0l2,-1l0,3l14,-1l19,0l29,1l7,-1l7,1l1,2l22,2l3,2l0,2l-14,0l0,-2l-11,0l-2,-1l-52,-1l-1,-1l-17,-1l0,2l-53,1l-1,1l-9,0l0,2l-24,0l0,2l-17,1l-8,3l-12,1l-2,1l-10,1l-8,3l-9,1l-15,3l-1,2l-12,3l-7,2l-4,2l-20,4l0,2l-6,2l-9,2l-3,2l-11,3l-5,3l-6,0l0,2l-4,0l-1,2l-12,4l-7,4l-12,4l-2,0l0,2l-10,4l-6,3l-7,3l-12,6l-6,4l-7,2l-1,3l-4,0l0,2l-4,1l-3,3l-8,4l-1,2l-4,1l-5,3l-1,2l-8,4l-4,4l-3,1l-2,3l-8,3l-4,5l-5,2l-9,6l-8,6l-3,0l-1,3l-5,2l0,3l-7,3l-2,4l-5,1l-2,4l-2,3l-5,0l-2,5l-10,8l-5,5l-4,5l-6,4l-2,3l-4,0l-1,4l-4,0l-2,4l-17,17l0,4l-4,0l-1,4l-4,5l-6,5l-5,5l-6,9l-5,5l-3,1l-1,5l-6,5l-9,12l-2,0l-2,5l-3,6l-5,6l-6,8l0,2l-3,2l-3,6l-2,0l-1,4l-2,0l0,5l-3,3l-3,5l-4,6l-3,5l-2,5l-2,1l-2,4l-2,0l-1,5l-4,6l-3,7l-6,11l-5,8l-8,19l-4,8l-3,8l-1,4l-2,0l-2,7l-3,8l-3,4l-1,5l-2,6l-1,2l-2,0l-1,14l-4,2l0,7l-2,4l-1,4l-2,5l-1,7l-2,1l-1,7l-4,6l0,5l-1,1l-1,7l-3,7l0,6l-1,2l-1,9l-1,1l-1,7l-2,0l0,9l-2,3l0,11l-3,7l-1,13l-1,1l0,14l-1,2l-1,10l-1,1l-1,22l-2,0l1,40l-1,2l0,44l1,1l1,14l1,28l1,1l1,21l2,10l1,1l2,17l1,1l0,13l2,0l2,9l-3,2l-8,-1l-9,-3l-9,-7l-9,-6l-6,-6l-1,-15l-2,-1l0,-113l2,-1l1,-25l1,-1l1,-17l2,0l0,-15l1,-1l1,-15l1,-2l1,-9l2,0l1,-13l1,-1l1,-10l2,0l0,-9l2,0l0,-9l1,-1l1,-10l3,0l0,-7l1,-1l1,-7l1,-1l1,-8l2,0l0,-7l3,-7l2,0l0,-6l3,-8l3,-12l2,-1l1,-6l2,0l0,-6l3,-7l1,-4l2,0l0,-5l2,-1l1,-5l2,0l0,-5l2,0l0,-5l4,-10l2,-1l1,-6l2,0l0,-4l2,0l0,-5l3,-5l1,-4l2,0l2,-5l5,-12l3,0l1,-6l4,-9l3,-7l4,-4l4,-8l1,-4l5,-2l1,-5l2,-5l2,-2l1,-4l2,0l0,-4l5,-2l0,-5l3,-3l1,-3l2,-1l2,-5l4,-3l3,-7l3,-3l3,-4l2,-5l3,-3l3,0l1,-5l2,-4l4,-4l3,-4l2,0l2,-6l5,-5l3,-1l1,-5l5,-6l2,-1l3,-6l9,-8l3,-6l7,-6l7,-8l22,-22l2,0l2,-4l8,-8l2,0l2,-4l3,-3l2,0l1,-3l7,-7l6,-2l3,-5l7,-6l2,0l0,-3l7,-4l4,-4l3,-1l5,-5l10,-7l2,-3l5,-1l1,-3l3,0l1,-3l7,-6l5,-1l2,-4l5,-2l8,-6l4,-1l4,-4l7,-5l5,-1l0,-3l8,-3l3,-1l1,-3l4,1l1,-3l5,-4l5,0l0,-2l8,-3l3,-4l12,-5l4,-2l1,-2l4,-1l2,-2l3,1l1,-3l4,-1l8,-3l1,-2l8,-4l9,-3l0,-2l7,-2l5,-2l4,0l1,-3l5,1l1,-3l3,0l2,-3l5,1l0,-2l5,-2l6,0l0,-2l7,-2l5,-3l5,-1l4,-2l10,-2l7,-3l7,0l1,-3l5,0l0,-2l8,-1l8,-3l8,-1l1,-1l7,-1l1,-2l9,0l0,-2l8,-1l1,-1l9,-1l9,-2l4,0l0,-2l10,-1l1,-1l11,-1l1,-1l15,0l0,-2l14,-1l1,-1l20,-1l0,-2l27,0l0,-2z" fill="#AE002F" id="svg_6"/>
  <path d="m95,994l3,0l1,2l1,27l3,9l4,9l4,6l6,8l3,2l0,2l5,2l5,3l13,4l14,2l14,3l18,3l18,5l12,4l16,9l9,5l7,6l5,8l3,11l1,7l0,11l-3,10l-7,10l-10,7l-13,4l-10,2l-14,-1l-17,-4l-13,-5l-13,-7l-12,-9l-21,-21l-13,-18l-8,-14l-4,-10l1,-2l8,11l9,11l17,17l12,9l15,10l2,1l-1,-3l-5,-3l-11,-8l-11,-9l-19,-19l-7,-11l-6,-9l-4,-9l-7,-20l-3,-15l-1,-12l2,-26l2,-5z" fill="#AE002F" id="svg_7"/>
  <path d="m0,0l1,2l-10,22l-8,18l-6,10l-8,16l-13,24l-26,44l-9,14l-11,17l-13,20l-12,18l-10,14l-9,13l-11,15l-8,11l-14,19l-9,12l-7,9l-20,26l-9,11l-11,14l-11,13l-11,14l-11,13l-9,11l-13,16l-9,11l-12,14l-9,11l-14,15l-9,10l-7,8l-12,13l-12,12l-7,8l-20,20l-7,8l-5,5l-14,12l-15,13l-11,9l-30,26l-11,10l-11,9l-13,11l-14,11l-15,12l-11,8l-15,11l-24,16l-10,7l-12,7l-15,9l-16,8l-23,10l-14,5l-16,3l-2,1l-29,0l-17,-5l-5,-3l-16,-10l-11,-9l-9,-9l-11,-14l-7,-10l-4,-11l0,-10l3,-9l10,-6l32,-9l17,-6l36,-15l5,-3l10,-4l16,-8l28,-15l17,-10l6,-4l3,0l0,-2l6,-3l16,-10l11,-7l10,-7l14,-9l14,-10l19,-14l16,-12l9,-7l14,-11l16,-13l15,-14l12,-9l12,-12l8,-7l12,-11l9,-7l11,-9l5,-4l5,-5l13,-12l11,-10l8,-7l50,-50l7,-8l13,-13l7,-8l15,-16l9,-11l5,-5l2,-3l2,0l2,-4l10,-10l9,-11l9,-10l3,-5l5,-5l10,-11l9,-11l3,-5l5,-5l18,-22l5,-7l2,0l2,-4l7,-9l20,-26l4,-5l12,-16l13,-17l13,-18l6,-8l3,-2l5,0l1,-3l9,-5l8,-3l9,-5l8,-5l10,-5l11,-7l5,-3l2,0l1,-3l4,-3zm-27,24l-9,4l-7,2l-3,3l-4,1l-2,2l-3,0l0,2l-6,2l-4,3l-4,4l-4,1l0,3l-4,-1l-3,5l-2,0l-3,4l-2,10l-2,0l0,2l-5,2l-1,4l-2,5l-8,5l0,2l-2,0l-1,5l-8,8l-1,4l-3,9l-5,6l-4,2l-3,5l-3,2l-2,6l-3,3l-5,4l-4,6l-5,5l-2,4l-4,5l-7,6l1,3l-5,2l-1,3l-3,1l-3,5l0,2l-3,1l-2,5l-4,1l-1,4l-5,2l-2,4l1,3l-3,3l0,2l-3,0l-1,4l-3,1l-3,6l-2,1l0,2l-4,-1l-4,9l-2,1l-4,7l-7,2l-5,5l-1,7l-3,1l-4,6l0,2l-2,0l0,2l-3,1l-4,5l-4,2l0,2l-7,2l1,2l0,2l-6,8l-5,4l-2,3l-2,4l-5,2l-3,3l-3,1l-2,4l-1,3l-5,2l-4,3l0,3l-2,0l-1,4l-7,5l-4,4l0,3l-2,0l-2,5l-7,3l-2,2l-3,0l-3,6l3,0l-6,2l-3,5l-4,5l-2,4l-4,0l-4,8l-4,1l-10,7l-3,1l0,2l-4,2l-4,5l-1,4l-4,2l-5,4l-5,5l-6,5l0,2l-3,1l-2,3l-6,3l0,2l-5,2l-5,5l-3,1l0,2l-2,0l-3,6l-3,2l0,3l-6,1l0,2l-4,-1l-3,6l-5,3l-3,5l-5,2l0,5l-4,-1l-1,3l-4,0l0,2l-2,0l-2,4l-7,1l-2,2l-2,6l-6,2l-8,6l-3,4l-4,1l-2,7l-4,2l-10,6l-2,4l-6,2l-1,3l-2,0l0,2l-5,2l-6,1l0,2l-4,2l0,2l-2,0l0,2l-4,2l-3,3l-9,4l0,2l-4,2l-3,3l-9,4l-9,6l-5,5l-11,5l-2,3l-6,3l-9,6l-1,-2l-2,2l0,3l-5,0l-2,4l-6,1l-1,2l-7,2l-6,4l-4,4l0,3l-10,2l-11,6l-10,5l-10,3l-4,-1l-2,1l0,2l-6,1l-3,3l-8,5l0,2l-5,-1l-15,8l-4,2l-5,0l0,2l-4,-1l-12,2l-2,2l-6,2l-8,3l-6,0l0,2l-5,2l-4,3l-1,7l-2,0l0,13l4,10l4,4l2,0l1,4l3,1l1,4l5,5l3,5l2,0l0,2l6,5l4,2l4,3l9,5l3,0l1,3l3,0l-3,2l6,2l2,0l1,3l5,-1l1,3l7,-1l4,1l9,1l18,0l14,-4l4,-3l0,-2l2,0l0,2l5,-1l2,-2l-1,-2l4,0l0,-2l9,-2l3,-2l10,-1l5,-3l5,0l4,-2l0,-2l2,0l0,-2l6,-2l4,-2l0,-2l5,0l4,-3l8,-4l0,-2l4,-2l1,-3l3,-1l1,-3l9,-2l0,-2l4,-1l3,-9l5,0l4,1l4,-4l0,-2l5,-2l2,-2l-1,-3l8,1l2,-4l6,-3l0,-2l4,-1l3,-2l0,-3l2,0l0,-2l5,-1l7,-5l0,-2l5,-2l6,-6l0,-2l5,-1l8,-7l5,-3l4,-5l-1,-2l7,-2l2,-4l5,-3l7,-6l0,-2l5,-2l0,-3l4,-1l15,-12l0,-2l4,-2l4,-4l1,-3l4,-1l7,-5l1,-5l5,-1l4,-4l4,-2l1,-2l4,-2l1,-3l4,-4l0,-3l3,0l3,-4l-1,-2l6,-2l6,-6l0,-2l4,-2l0,-2l4,-2l4,-5l2,-3l0,-3l4,-2l9,-10l6,-4l0,-2l2,0l0,-2l2,0l1,-4l3,0l1,-3l5,-4l0,-2l2,0l0,-3l2,0l0,-5l5,-1l2,-4l5,-5l0,-2l5,-1l0,-3l4,-2l4,-5l3,-5l5,-6l0,-2l2,0l0,-2l4,-2l1,-4l4,-1l4,-5l0,-4l3,-1l5,-5l2,-4l3,-1l5,-8l0,-2l3,-1l5,-7l0,-3l3,-1l9,-9l8,-11l2,-4l4,-2l5,-7l0,-2l7,-6l1,-3l2,-1l0,-3l2,0l6,-10l4,-5l7,-7l1,-3l2,0l2,-5l3,-5l0,-2l4,-1l3,-5l1,-4l5,-3l3,-3l1,-3l4,-4l5,-7l1,-3l2,-1l0,-3l4,-2l4,-7l5,-5l6,-10l0,-2l4,-2l2,-5l1,-4l3,-1l9,-12l3,-7l5,-5l0,-3l2,0l6,-9l2,-6l2,-1l7,-11l4,-6l2,-1l2,-7l1,-3l2,0l0,-2l3,-1l4,-9l0,-2l3,-1l4,-7l0,-3l3,-1l7,-13l3,-5l3,-4l0,-3l2,0l3,-8l5,-6l6,-13l0,-3l2,0l1,-9l4,-2l3,-5l0,-2l2,0l4,-11l1,-4l2,-5l-3,1l-1,-4l-8,0z" fill="#9A002E" id="svg_8" transform="translate(972,948)"/>
  <path d="m0,0l106,0l1,1l26,1l5,2l14,1l-1,3l-10,1l-2,-1l-5,-1l-4,-2l0,-2l-29,1l-1,-1l-37,0l-13,1l-16,0l-18,2l-17,1l-3,-3l-3,1l-1,1l-8,0l-1,4l2,3l12,0l2,-1l0,3l14,-1l19,0l29,1l7,-1l7,1l1,2l22,2l3,2l0,2l-14,0l0,-2l-11,0l-2,-1l-52,-1l-1,-1l-17,-1l0,2l-53,1l-1,1l-9,0l0,2l-24,0l0,2l-17,1l-8,3l-12,1l-2,1l-10,1l-8,3l-9,1l-15,3l-1,2l-12,3l-7,2l-4,2l-20,4l0,2l-6,2l-9,2l-3,2l-11,3l-5,3l-6,0l0,2l-4,0l-1,2l-12,4l-7,4l-12,4l-2,0l0,2l-10,4l-6,3l-7,3l-12,6l-6,4l-7,2l-1,3l-4,0l0,2l-4,1l-3,3l-8,4l-1,2l-4,1l-5,3l-1,2l-8,4l-4,4l-3,1l-2,3l-8,3l-4,5l-5,2l-9,6l-8,6l-3,0l-1,3l-5,2l0,3l-7,3l-2,4l-5,1l-2,4l-2,3l-5,0l-2,5l-10,8l-5,5l-4,5l-6,4l-2,3l-4,0l-1,4l-4,0l-2,4l-17,17l0,4l-4,0l-1,4l-4,5l-6,5l-5,5l-6,9l-5,5l-3,1l-1,5l-6,5l-9,12l-2,0l-2,5l-3,6l-5,6l-6,8l0,2l-3,2l-3,6l-2,0l-1,4l-2,0l0,5l-3,3l-3,5l-4,6l-3,5l-2,5l-2,1l-2,4l-2,0l-1,5l-4,6l-3,7l-6,11l-5,8l-8,19l-4,8l-3,8l-1,4l-2,0l-2,7l-3,8l-3,4l-1,5l-2,6l-1,2l-2,0l-1,14l-4,2l0,7l-2,4l-1,4l-2,5l-1,7l-2,1l-1,7l-4,6l0,5l-1,1l-1,7l-3,7l-2,0l-1,-3l2,-5l0,-6l1,-5l3,-3l3,-6l0,-6l3,-2l1,-8l3,-3l1,-7l2,0l0,-8l1,-7l-2,-4l-4,0l0,4l-2,0l1,3l-3,5l0,5l-4,1l-1,3l2,2l-1,4l-3,5l-3,4l-1,4l-2,0l0,-7l2,0l0,-6l3,-7l1,-4l2,0l0,-5l2,-1l1,-5l2,0l0,-5l2,0l0,-5l4,-10l2,-1l1,-6l2,0l0,-4l2,0l0,-5l3,-5l1,-4l2,0l2,-5l5,-12l3,0l1,-6l4,-9l3,-7l4,-4l4,-8l1,-4l5,-2l1,-5l2,-5l2,-2l1,-4l2,0l0,-4l5,-2l0,-5l3,-3l1,-3l2,-1l2,-5l4,-3l3,-7l3,-3l3,-4l2,-5l3,-3l3,0l1,-5l2,-4l4,-4l3,-4l2,0l2,-6l5,-5l3,-1l1,-5l5,-6l2,-1l3,-6l9,-8l3,-6l7,-6l7,-8l22,-22l2,0l2,-4l8,-8l2,0l2,-4l3,-3l2,0l1,-3l7,-7l6,-2l3,-5l7,-6l2,0l0,-3l7,-4l4,-4l3,-1l5,-5l10,-7l2,-3l5,-1l1,-3l3,0l1,-3l7,-6l5,-1l2,-4l5,-2l8,-6l4,-1l4,-4l7,-5l5,-1l0,-3l8,-3l3,-1l1,-3l4,1l1,-3l5,-4l5,0l0,-2l8,-3l3,-4l12,-5l4,-2l1,-2l4,-1l2,-2l3,1l1,-3l4,-1l8,-3l1,-2l8,-4l9,-3l0,-2l7,-2l5,-2l4,0l1,-3l5,1l1,-3l3,0l2,-3l5,1l0,-2l5,-2l6,0l0,-2l7,-2l5,-3l5,-1l4,-2l10,-2l7,-3l7,0l1,-3l5,0l0,-2l8,-1l8,-3l8,-1l1,-1l7,-1l1,-2l9,0l0,-2l8,-1l1,-1l9,-1l9,-2l4,0l0,-2l10,-1l1,-1l11,-1l1,-1l15,0l0,-2l14,-1l1,-1l20,-1l0,-2l27,0l0,-2z" fill="#9B002E" id="svg_9" transform="translate(961,216)"/>
  <path d="m0,0l19,0l8,6l5,7l4,10l1,8l-3,24l0,5l-3,8l-2,8l-3,8l-2,6l-1,4l-9,19l-8,16l-6,13l-3,3l-5,9l-7,10l-8,11l-11,16l-9,11l-11,12l-9,11l-11,11l-3,4l-2,0l-2,4l-8,9l-8,7l-8,8l-5,4l-5,5l-6,5l-5,5l-2,3l-5,3l-9,9l-5,3l-5,5l-2,0l-2,4l-11,9l-12,11l-11,9l-14,12l-2,1l-1,3l3,1l0,2l2,0l2,5l5,5l3,2l2,5l7,7l0,4l4,2l0,2l3,0l0,5l2,0l2,3l0,3l2,0l0,2l2,0l3,3l4,7l2,5l4,4l1,4l2,0l3,6l1,5l3,0l2,3l0,3l2,0l2,6l2,2l0,3l3,0l2,6l2,2l0,3l2,0l2,5l3,3l2,5l2,4l0,3l2,0l0,5l3,1l0,3l2,0l2,3l2,10l2,0l0,3l3,1l1,4l5,11l2,4l0,4l2,0l3,5l1,5l3,6l0,4l3,1l3,10l3,7l2,5l0,5l3,0l2,8l2,7l2,4l1,5l1,1l0,6l3,1l4,16l2,7l0,5l2,0l0,9l3,1l1,7l1,1l1,8l3,9l1,8l2,6l2,7l0,8l2,0l1,12l1,1l1,13l1,2l1,11l2,2l1,16l1,2l1,22l1,1l1,26l1,1l0,86l-2,0l0,25l-1,1l-1,21l-1,1l-1,19l-3,1l0,10l-1,1l-1,15l-1,1l-1,10l-2,7l-1,5l-1,10l-3,1l-1,9l-1,8l-1,1l-1,7l-2,7l-3,9l-2,7l-3,9l-1,7l-1,1l-1,8l-3,0l0,5l-3,1l1,-10l-1,-4l2,-5l3,-11l1,-3l2,0l1,-5l2,0l1,-6l2,-3l1,-8l-1,-4l2,0l0,-3l2,-1l0,-6l2,-6l0,-5l3,-1l-2,-4l4,-7l0,-18l1,-7l0,-6l2,-6l-1,-4l1,-3l2,0l0,-3l4,-3l0,-19l2,-18l2,-6l0,-22l2,-6l-1,-1l0,-59l1,-18l-1,-2l0,-26l-2,0l-1,-18l-2,-7l-1,-15l-4,-16l-1,-14l-3,-19l-2,-6l-1,-7l-2,-3l-2,-13l-4,-13l-4,-16l-2,-3l-3,-13l-2,-6l1,-2l-2,0l-6,-20l-1,-5l-2,0l-1,-8l-3,-4l-4,-11l-3,-7l-2,-6l-3,-4l-1,-4l-3,-10l-3,-5l-3,-3l-4,-7l-3,-10l-1,-3l-2,0l-5,-9l-1,-5l0,-3l0,-2l-3,-1l-7,-14l0,-2l-3,-1l-3,-6l-4,-5l0,-3l-4,-2l-3,-5l-1,-5l-4,-6l-2,-1l0,-3l-2,-1l-1,-6l-4,-2l-1,-4l-3,-1l-3,-6l0,-3l-2,0l-2,-5l-3,-2l0,-2l-3,-1l-1,-4l-2,0l-3,-10l-3,-1l-5,-6l-2,-1l0,-3l-3,1l0,-3l-2,0l0,-4l-2,0l-1,-4l-4,-1l0,-1l-2,-1l-1,-5l-3,-4l0,-7l6,-7l5,-5l2,0l2,-4l6,-4l2,0l0,-2l2,0l1,-4l10,-7l3,-6l3,0l0,-2l3,0l1,-3l7,-4l3,0l0,-2l5,-4l2,0l0,-2l3,-1l1,-3l3,0l0,-2l2,0l1,-4l4,-4l2,0l0,-2l6,-3l5,-5l9,-10l16,-14l4,-8l2,-5l6,-3l3,0l2,-2l3,0l2,-4l6,-9l3,-3l3,0l1,-4l6,-7l3,-5l5,-4l5,-6l0,-4l5,-2l0,-3l5,-2l-1,-3l2,0l1,-6l5,-2l2,-6l4,-3l2,-5l2,-4l6,-7l2,-4l2,0l1,-5l4,-6l3,-9l3,-7l5,-10l6,-9l3,-10l1,-7l3,-1l1,-8l1,-7l1,-14l2,-6l1,-2l-1,-9l-3,-10l-2,-1l-1,-7l-12,-7l-12,0l-11,2l-5,1l-12,3l-7,3l-5,2l-9,4l-9,2l-4,1l-20,7l-5,2l-8,2l-4,2l-9,4l-6,1l-1,3l-9,4l-9,5l-3,2l-4,1l-3,2l-4,9l-3,6l-3,1l-2,6l-5,5l-3,1l-2,1l0,6l-3,5l-2,0l-1,3l-7,2l-1,7l-4,6l-1,4l-3,0l-1,6l-3,2l-3,6l-3,5l-3,1l-4,9l-3,5l-5,1l-2,6l-3,5l-2,2l-3,5l-2,0l-2,4l-2,0l-2,4l-6,8l-4,3l-2,1l-4,9l-6,3l-2,4l-2,0l1,3l-4,2l-2,4l-3,1l-1,2l-3,3l0,2l-6,5l-1,3l-2,0l-1,5l-2,0l-2,4l-6,7l-1,5l-2,0l0,2l-4,0l-1,2l-2,0l0,2l-8,3l-4,-1l-2,-2l-1,-2l-4,-1l-3,1l-2,-2l0,-3l-4,-2l0,-2l-4,-2l-5,-2l0,-2l-2,0l0,-2l-7,-1l-3,-4l0,-2l-2,0l0,-3l-6,-2l-9,-7l-2,-3l-5,0l-4,-3l-5,-3l0,-2l-5,-2l-3,-3l-10,-5l0,-3l-4,-2l-3,-3l1,-2l-5,-1l-6,-3l-5,-1l0,-2l-6,-1l-1,-3l-8,-4l-7,-1l-6,-4l0,-3l-7,0l-1,-3l-4,-1l-2,-1l0,-3l-7,0l-5,-3l-6,-1l-5,-2l0,-2l-5,-1l-9,-4l-2,0l0,-2l-4,-1l-7,-3l-5,-1l-3,-3l-21,-7l-1,-2l-6,-2l-2,-2l-5,-2l-4,-2l-4,1l-11,-4l1,-4l9,2l18,6l0,2l13,3l6,3l11,3l1,2l4,0l1,2l10,3l10,4l1,2l14,5l5,3l0,2l5,1l4,1l0,2l4,0l0,2l5,1l4,2l0,2l5,1l6,3l5,2l0,2l4,0l0,3l4,0l0,2l5,1l6,3l0,2l5,1l2,3l10,4l1,4l6,1l5,3l2,3l5,2l1,2l8,4l0,2l4,1l5,4l2,0l2,3l5,2l9,8l4,3l4,1l4,6l8,4l3,5l8,4l0,2l4,1l0,3l5,-5l7,-9l9,-10l7,-9l9,-10l9,-12l11,-13l9,-11l9,-12l7,-8l9,-12l11,-14l13,-18l8,-11l4,-6l8,-11l4,-6l8,-11l8,-12l6,-8l10,-7l11,-6l19,-9l13,-4l20,-8l20,-7l14,-4l17,-5l19,-4z" fill="#9B002E" id="svg_10" transform="translate(1822,138)"/>
  <path d="m1315,318l6,0l5,5l16,6l1,4l7,1l1,3l5,0l2,2l4,2l0,3l4,1l0,2l4,1l8,3l3,3l11,6l-1,4l4,1l11,7l11,6l5,3l0,2l2,0l0,2l3,1l0,4l5,1l3,5l0,2l5,-1l3,3l0,3l5,2l0,2l2,0l0,2l6,2l1,3l2,0l0,2l2,0l3,3l5,3l3,6l6,1l4,9l1,4l-2,0l1,5l-5,4l-5,9l-3,0l-2,6l-6,5l-4,1l-2,5l-8,8l-2,0l-1,3l-2,0l-2,4l-5,4l-5,2l-4,2l-2,3l-3,1l-10,10l-3,4l-3,0l-1,3l-2,1l0,2l-9,3l-1,3l-2,0l-2,4l-3,3l-1,3l-2,0l-1,3l-1,-1l-4,4l-3,2l-5,1l0,3l-6,4l-5,9l-4,2l-5,5l-8,4l-6,7l-2,4l-2,0l0,2l-6,1l-3,4l-2,0l-2,5l-8,5l-6,0l-1,4l-7,3l-3,0l1,3l-2,2l-3,0l1,5l-6,3l-6,-1l-1,3l-2,0l1,3l-4,-1l0,2l2,1l-4,3l-2,0l0,2l-5,1l-2,5l-3,3l-6,3l-1,2l-6,3l-1,2l-4,0l0,2l-2,0l-1,3l-6,5l-6,0l-1,3l-2,0l-1,3l-4,1l-6,5l-4,4l-3,0l0,2l-3,0l0,2l-2,0l0,2l-5,5l-6,1l0,3l-8,4l-5,4l-5,2l-5,5l-3,1l-5,4l-8,4l-5,5l-7,3l-2,3l-2,0l0,2l-2,0l-1,3l-5,2l-6,2l-2,3l-3,3l-2,0l-1,3l-14,7l-8,5l-1,2l-2,0l0,3l-6,2l-3,3l-8,1l-2,5l-4,2l-4,4l-8,5l-10,1l-2,4l-6,4l0,2l-6,2l-4,0l0,3l-4,0l-1,3l-9,4l-2,0l-2,5l-9,6l-3,0l0,2l-8,4l-5,6l-12,4l-1,3l-3,1l-2,2l-9,4l-2,3l-6,0l-5,1l-1,2l-3,1l-4,4l-9,2l-5,5l-4,1l-4,5l-9,5l-2,1l-2,-1l0,2l-5,0l-1,4l-3,2l-6,0l-6,7l-6,3l-9,4l-3,0l0,2l-2,0l0,4l-7,2l-9,4l-5,3l-3,0l-2,4l-7,2l-3,3l-14,7l-3,1l0,2l-11,5l-3,-1l-1,3l-7,5l-2,0l-1,2l-5,2l-9,4l1,2l-9,2l-6,4l-10,2l0,2l-9,4l-1,2l-12,6l-7,1l-6,3l-8,5l-7,3l-4,1l0,2l-7,3l-4,0l0,2l-3,0l0,2l-7,1l-2,4l-12,5l-5,3l-1,1l-7,0l-4,1l-7,1l4,-4l8,-4l16,-7l8,-5l9,-3l14,-7l28,-13l16,-8l15,-8l7,-4l7,-3l16,-9l8,-4l15,-8l14,-8l8,-5l7,-3l11,-7l14,-7l8,-6l6,-2l13,-8l7,-4l5,-2l11,-7l4,-3l10,-4l25,-15l6,-3l4,-3l14,-7l10,-7l15,-8l6,-5l10,-5l10,-7l18,-11l3,-3l9,-5l10,-6l5,-4l10,-6l3,-3l11,-6l18,-13l9,-5l10,-8l6,-3l11,-8l9,-6l11,-8l13,-9l12,-8l9,-7l15,-10l14,-11l15,-10l11,-9l9,-6l11,-9l13,-10l9,-7l11,-9l14,-11l13,-11l8,-6l5,-5l12,-10l5,-5l4,-1l0,-2l10,-8l5,-5l14,-12l11,-9l5,-5l3,-1l2,-4l15,-13l9,-9l2,0l2,-4l7,-7l8,-7l7,-7l2,0l2,-4l13,-14l2,0l-2,-5l-4,-5l-5,-4l-3,-3l-6,-4l-5,-5l-5,-4l0,-2l-4,-1l0,-3l-5,-1l-3,-4l-5,-2l-8,-8l0,-2l-6,-2l-5,-5l-4,-2l0,-2l-4,-2l-8,-6l-3,-1l-1,-2l-6,-3l-1,-3l-4,0l-2,-3l-6,-3l-6,-5l-5,-2l-6,-4l-5,-2l-2,-2l-8,-3l-2,-3l-9,-4l-1,-3l-4,0l0,-2l-4,-1l-2,-3l-6,-1l0,-2z" fill="#9A002E" id="svg_11"/>
  <path d="m0,0l3,0l2,3l5,3l4,2l0,2l5,1l8,6l6,4l4,2l1,2l14,7l21,10l5,5l7,5l5,2l6,4l4,2l6,2l0,3l4,0l2,3l9,3l4,3l6,2l8,4l10,3l0,2l4,0l0,2l7,1l8,4l5,1l0,2l5,0l6,3l5,1l0,2l5,0l0,2l6,1l7,1l6,2l0,2l5,0l1,1l7,1l1,1l7,1l5,2l0,2l9,0l1,1l7,1l8,3l9,1l0,2l11,0l0,2l7,1l11,1l4,2l10,1l10,3l15,1l1,1l20,1l1,1l12,1l1,1l119,0l1,-1l10,-1l1,-1l22,0l0,-2l15,-1l1,-1l10,-2l12,-1l1,-2l11,-1l8,-3l9,0l0,-2l11,-1l6,-3l8,0l0,-2l10,0l-3,1l0,2l-7,1l-3,1l-2,-1l0,2l-6,1l0,2l-3,2l-8,-1l-9,1l-9,5l-3,-1l0,2l-10,-1l1,2l-5,2l-10,1l-9,2l-12,1l-2,0l-3,1l-19,1l-4,2l-9,1l-1,0l-1,1l-6,0l0,-1l-5,-1l0,2l-12,1l-31,-1l-2,-1l-32,0l-17,-1l-23,0l-5,-2l-11,-1l-1,-1l-24,0l-7,-1l-9,-3l-7,-3l-10,-1l-1,-1l-5,0l-5,-3l-8,-1l-1,-1l-12,-1l-7,-2l-9,-2l0,-2l-4,1l-4,-4l-6,-1l-13,-1l-5,-1l0,-2l-3,-1l-7,-1l-12,-5l-5,-2l-12,-3l-3,-3l-13,-4l-4,-3l0,-2l-3,0l0,-2l-6,1l-6,-2l0,-2l-4,2l-16,-8l-9,-3l-1,-3l-8,-3l0,-2l-2,0l-1,-4l-2,0l-1,2l-1,-2l-7,-2l-7,-6l-3,-1l0,-2l-4,0l-3,-4l0,-2l-5,-1l-8,-3l-10,-4l-5,-3l0,-2l-3,-1l-2,-2l-11,-4l0,-2l-3,-1l-2,-4l-3,0l-4,-4l-6,-4l-3,0l-9,2l-3,4l-2,0l0,2l-2,0l-1,3l-11,7l-2,4l-3,0l-2,4l-3,4l-5,3l-3,5l-3,1l-2,9l0,4l4,2l4,6l5,1l1,2l4,1l1,5l2,0l0,2l4,1l1,2l5,1l5,6l2,1l1,1l3,-1l4,4l0,4l5,2l9,7l9,2l3,2l0,2l4,1l6,4l7,5l-1,2l7,3l1,2l7,2l9,4l1,3l13,8l6,0l0,2l4,2l0,2l4,1l4,3l0,2l9,2l0,2l-7,-1l-6,-3l-3,-4l-2,0l0,-2l-5,0l-4,-3l-5,-2l-4,-1l-2,-4l-10,-4l-7,-5l-5,-3l0,-2l-5,-1l-5,-3l-2,-2l-7,-3l-5,-4l-3,-3l-4,-3l-6,-2l-1,-2l-4,-2l-2,-3l-7,-3l-4,-4l-3,-1l-5,-5l-7,-4l-1,-4l-4,0l0,-2l-4,-1l0,-2l-3,-1l0,-3l-5,-1l-5,-4l-3,-4l0,-2l-6,-1l-5,-6l1,-3l8,-7l14,-13l10,-8l7,-7l10,-8l10,-9z" fill="#9A002E" id="svg_12" transform="translate(559,1535)"/>
  <path d="m0,0l3,1l-9,5l-13,5l-6,2l0,2l-26,10l-16,8l-12,5l-8,4l-5,2l-5,3l-16,6l-10,4l-5,0l-1,3l-30,10l-7,4l-21,7l-9,4l-42,14l-8,4l-14,4l-18,6l-11,3l-19,6l-26,7l-25,6l-36,6l-16,2l-40,0l-8,-3l-5,-3l-6,-4l-8,-10l-1,-4l0,-10l4,-6l10,-5l17,-3l9,0l13,-3l28,-6l24,-6l37,-12l10,-4l20,-7l3,-2l9,-3l14,-7l12,-5l9,-4l3,-2l6,-2l5,-3l6,-2l5,-3l10,-4l8,-4l10,-4l9,-5l3,1l-4,7l-14,6l-5,3l-17,7l-4,3l-10,4l-7,3l-4,0l0,2l-9,4l-4,0l-2,4l-20,6l-15,5l-2,4l-9,3l-9,2l-6,1l-1,3l-5,2l-14,3l0,1l-10,3l-15,4l-17,5l-13,1l-10,4l-11,1l0,1l-12,2l-15,0l-5,2l-2,1l-1,2l-3,0l1,6l-2,3l1,8l5,6l0,2l3,-1l7,3l0,2l5,2l16,0l18,1l14,-1l9,-2l18,-1l7,-3l11,0l3,-2l7,-1l5,-3l11,-1l7,-3l8,-2l8,-1l11,-5l21,-6l9,-3l11,-3l5,0l0,-2l7,-2l3,-2l10,-3l7,-3l9,-3l6,-1l10,-3l9,-5l10,-1l0,-2l4,0l1,-3l8,-1l9,-5l6,-2l4,-2l9,-2l9,-4l3,-2l5,0l1,-3l5,0l0,-2l14,-4l5,-2l14,-8l7,-1l5,-1l0,-2l7,-3l3,-2l5,0l0,-2l10,-4l2,0l2,-4l3,-2l5,-1l8,-1l0,-2l5,-2l5,-1l16,-7z" fill="#9B002E" id="svg_13" transform="translate(820,1007)"/>
  <path d="m0,0l3,0l1,2l1,27l3,9l4,9l4,6l6,8l3,2l0,2l5,2l5,3l13,4l14,2l14,3l18,3l18,5l12,4l16,9l9,5l7,6l5,8l3,11l1,7l0,11l-3,10l-7,10l-10,7l-13,4l-10,2l-14,-1l-1,-2l22,-1l1,-2l7,-1l4,0l0,-2l4,0l0,-2l3,0l0,-2l2,0l0,-2l2,-1l1,-3l4,-2l0,-2l2,-2l1,-14l0,-12l-3,-9l-8,-10l-2,-3l-8,-2l-3,-2l0,-2l-4,-1l-8,-5l-4,-2l-12,-2l-9,-2l-14,-3l-9,-2l-15,-4l-9,-1l0,-2l-4,1l-7,-2l-3,-2l-8,-1l-4,-2l-2,2l-4,-1l-1,-1l0,-7l-8,-1l-1,3l-3,0l3,5l1,4l-1,4l3,1l0,6l4,1l2,5l1,3l2,0l4,9l1,2l3,1l0,2l3,1l0,2l3,1l0,2l3,1l0,2l2,0l0,2l2,0l0,3l2,0l0,2l2,0l0,2l5,2l12,9l10,7l0,7l-1,2l-8,0l1,5l7,3l5,5l4,1l0,2l10,0l5,3l9,3l-1,2l-10,-2l-15,-5l-15,-8l-12,-9l-21,-21l-13,-18l-8,-14l-4,-10l1,-2l8,11l9,11l17,17l12,9l15,10l2,1l-1,-3l-5,-3l-11,-8l-11,-9l-19,-19l-7,-11l-6,-9l-4,-9l-7,-20l-3,-15l-1,-12l2,-26l2,-5z" fill="#9A002E" id="svg_14" transform="translate(95,994)"/>
  <path d="m0,0l5,1l10,8l7,4l5,14l1,9l4,3l1,7l2,1l2,6l2,2l0,6l2,0l1,6l3,4l3,9l5,10l3,7l1,6l2,1l8,16l3,3l1,4l5,9l0,2l2,0l4,8l3,7l3,3l1,3l2,1l6,12l0,3l3,1l7,11l12,16l6,10l3,2l4,7l4,4l7,9l3,5l3,2l0,3l4,1l4,7l8,10l5,3l2,5l2,2l-1,4l-5,2l0,2l-13,10l-15,10l-14,9l-6,3l-1,2l-4,0l0,-2l-3,-1l-2,-5l-4,-3l-2,-7l-4,-2l-3,-4l0,-2l-2,0l-2,-6l-5,-3l-1,-5l-3,-2l-2,-4l0,-3l-4,-2l-3,-5l-3,-7l-4,-3l-3,-7l-3,-5l0,-4l-3,-1l-1,-3l-3,-2l-4,-10l0,-4l-5,-2l-4,-10l-2,-4l0,-3l-3,-1l-3,-8l-1,-5l-2,0l-1,-4l-2,0l-4,-10l0,-3l-3,-1l1,-6l-2,0l-1,-3l-2,-1l-2,-5l-2,-8l-4,-8l-2,-6l-1,-4l-2,0l-1,-7l-3,-7l-3,-10l-2,-1l-1,-6l-2,-2l-1,-5l-4,-7l-2,-7l-1,-7l-2,-7l-6,-17l-1,-13l3,-5l10,-9l6,-5l4,-5l2,-1zm1,6l-4,2l0,2l-2,1l-2,2l-5,3l-3,4l-3,5l-1,15l2,6l2,4l1,16l3,6l2,6l4,4l0,6l4,9l1,4l2,1l3,6l3,11l3,10l5,10l4,5l1,5l2,4l-1,2l2,0l1,7l6,10l2,0l0,2l2,1l2,9l2,0l0,6l2,0l2,7l3,0l0,3l1,1l-2,2l3,5l0,2l5,5l2,5l3,3l2,4l1,4l5,8l4,2l1,5l3,0l1,4l2,0l0,5l3,4l2,5l5,2l-1,6l4,5l5,5l2,0l-1,3l3,0l1,6l2,2l2,1l0,2l2,0l1,3l2,1l1,4l3,0l1,3l2,0l1,3l3,0l0,-2l5,1l5,-5l2,-1l0,-2l3,1l3,-3l5,-2l3,-3l0,-2l5,-2l8,-4l3,-3l0,-2l2,0l0,-2l2,0l1,-2l0,-8l-3,-1l-1,-3l-3,-3l-2,0l-2,-6l-5,-2l-2,-5l-2,-4l-5,-3l-7,-8l-7,-10l-4,-3l0,-3l-2,0l-1,-5l-5,-10l-3,-1l0,-2l-2,0l0,-3l-7,-6l-3,-5l-2,0l-1,-4l-2,-5l-2,0l-2,-7l-4,-7l-4,-6l-7,-14l-5,-9l-4,-8l-3,-3l-3,-6l-3,-2l-3,-9l-3,-5l-4,-13l-2,-2l-3,-7l-5,-13l-2,-7l-2,-1l-2,-4l-2,0l1,-4l-2,-6l-2,-5l-2,-2l-2,-11l-4,-9l-7,-7l-5,-1l-7,-3z" fill="#9B002E" id="svg_15" transform="translate(278,1163)"/>
  <path d="m0,0l30,0l17,2l34,7l20,6l20,7l25,11l16,8l11,6l16,10l18,13l11,9l12,11l9,9l9,11l9,14l5,11l1,11l-2,13l-4,9l-10,15l-12,14l-13,10l-16,10l-7,3l-9,3l-12,3l-7,1l-11,0l-1,-2l4,-1l8,0l11,-2l7,-1l1,-4l6,-3l2,-2l6,1l8,-3l3,-4l2,0l2,-4l2,0l1,-3l5,-2l3,0l0,-2l9,-7l3,-7l2,0l-1,-3l3,0l1,-6l6,-2l2,-6l2,-7l1,-6l-1,-18l-2,-5l0,-3l-4,-2l-6,-7l-2,-3l-2,-4l-2,-5l-3,-2l-2,1l-4,-7l-5,-2l-8,-8l0,-2l-3,0l-1,-5l-5,0l-1,-5l-3,-1l-1,-1l-5,-1l-5,-5l-5,-4l-5,-1l0,-2l-2,0l-1,-3l1,-1l-2,-1l0,2l-9,-3l-9,-5l-2,-3l-4,-1l-15,-8l-12,-4l-14,-6l-9,-2l-10,-4l-10,-3l-2,-1l0,-2l-10,-1l-2,-2l-11,-1l-2,-2l-5,1l-10,-2l-6,0l-7,-2l-12,0l-2,6l0,3l16,3l11,4l15,6l1,2l-5,-1l-17,-7l-27,-5l-5,-2l-17,-2l-3,-1l2,-7l6,-3l7,-1z" fill="#9B002E" id="svg_16" transform="translate(310,803)"/>
  <path d="m0,0l3,1l0,9l-1,5l-2,1l-1,5l-2,0l0,3l3,1l-4,5l-2,4l0,8l-3,1l-3,13l-2,2l0,6l-2,4l-1,5l0,8l-1,3l-2,2l-1,6l-2,3l-1,13l-3,16l-2,4l-3,28l-3,22l-1,5l1,10l-1,2l0,30l-1,31l0,15l1,39l1,11l0,3l1,3l0,4l2,0l1,4l2,1l-1,1l5,2l5,5l4,2l1,-2l5,4l3,1l0,-2l5,-1l-1,-6l0,-8l-2,-17l-2,-3l0,-4l-2,-1l0,-8l-1,-5l0,-12l-2,0l-1,-10l0,-17l1,-13l-1,-4l0,-81l-1,-2l1,-5l0,-8l2,-5l1,-10l3,-19l1,-8l1,-11l1,-7l3,-5l1,0l-1,10l-1,1l-1,13l-1,1l0,14l-1,2l-1,10l-1,1l-1,22l-2,0l1,40l-1,2l0,44l1,1l1,14l1,28l1,1l1,21l2,10l1,1l2,17l1,1l0,13l2,0l2,9l-3,2l-8,-1l-9,-3l-9,-7l-9,-6l-6,-6l-1,-15l-2,-1l0,-113l2,-1l1,-25l1,-1l1,-17l2,0l0,-15l1,-1l1,-15l1,-2l1,-9l2,0l1,-13l1,-1l1,-10l2,0l0,-9l2,0l0,-9l1,-1l1,-10l3,0l0,-7l1,-1l1,-7l1,-1l1,-8l2,0l0,-7l3,-7l2,0l0,-6l3,-8l3,-12z" fill="#9A002E" id="svg_17" transform="translate(273,740)"/>
  <path d="m0,0l10,0l15,2l3,4l0,8l3,14l5,10l6,6l0,2l-11,4l-13,1l-10,-2l-8,-4l-7,-6l-7,-11l-1,-3l0,-16l2,-5l5,-3l8,-1z" fill="#AF0030" id="svg_18" transform="translate(295,1109)"/>
  <path d="m0,0l2,0l0,12l-1,12l-1,8l-2,15l-2,3l-1,8l0,2l-2,15l-3,3l-1,8l-1,1l0,6l-1,6l-3,12l-2,5l-1,6l-2,0l1,3l-2,3l-2,0l-1,9l-2,11l-2,2l0,5l-3,1l1,8l-5,12l-2,0l0,9l-2,0l-2,5l-4,7l-2,4l-2,7l-1,8l-2,4l-2,2l-3,0l-1,5l-3,0l-3,11l-2,8l-4,3l-1,5l-3,5l0,2l-2,0l1,5l-2,2l0,2l-3,0l-1,4l-5,5l-4,2l-1,5l-2,6l-5,5l-2,0l-1,5l-3,4l-1,4l-2,6l-2,0l-5,7l-4,7l-2,1l0,3l-2,1l-4,7l-7,8l-3,7l-3,4l-2,0l-2,6l-4,4l-2,4l-3,0l0,2l-2,0l0,3l-2,1l-2,3l-6,5l-4,1l-2,7l-2,0l0,2l-4,1l-1,6l-5,5l-4,5l-2,0l-1,3l-4,1l-2,5l-7,6l-2,0l0,2l-2,0l-2,5l-4,4l-7,2l-8,8l-6,2l2,-4l9,-9l5,-1l2,-4l17,-17l8,-9l8,-7l6,-8l8,-8l2,0l2,-4l5,-8l4,-4l2,0l2,-5l14,-18l3,-5l4,-2l1,-5l2,0l1,-3l2,0l-1,-3l4,-3l2,0l1,-5l4,-4l3,-5l2,0l1,-6l7,-11l6,-10l2,-5l3,-1l1,-4l5,-10l2,0l1,-5l2,0l1,-5l9,-18l3,0l-1,-6l3,-5l2,-1l3,-10l3,-1l1,-5l5,-10l3,-8l2,-6l2,-2l3,-11l3,-5l1,-5l2,-8l1,-2l2,0l0,-7l2,0l1,-7l3,-11l2,-6l2,0l0,-6l2,0l0,-8l1,-5l4,-10l0,-9l2,-7l2,0l0,-7l1,-1l1,-12l1,-1l1,-7l1,-5l2,-5l1,-14l2,0l-1,-13l2,0l0,-12z" fill="#9A002E" id="svg_19" transform="translate(1700,1047)"/>
  <path d="m0,0l3,1l0,2l4,2l5,7l2,0l3,5l3,3l2,5l2,1l0,4l3,0l0,5l1,3l3,1l4,7l3,8l3,1l1,7l5,3l4,8l2,3l0,6l4,1l4,5l1,3l0,8l2,0l0,4l3,1l2,4l5,4l2,3l0,5l2,2l2,6l1,12l3,0l1,7l2,0l1,5l2,0l1,10l3,4l5,14l5,17l4,11l1,10l3,0l0,6l2,0l2,7l-1,3l3,7l3,10l1,9l0,9l3,0l3,12l3,17l0,10l2,8l1,10l1,1l1,20l2,10l0,15l2,0l1,9l0,23l2,0l-1,9l0,49l-1,6l-2,20l-1,3l-1,17l-2,1l0,-21l1,-1l1,-24l2,-1l-1,-89l-2,0l-1,-2l-1,-22l-1,-1l-1,-20l-1,-1l-1,-11l-3,-10l-1,-4l-1,-13l-1,-2l-1,-9l-1,-1l0,-7l-2,0l0,-12l-2,0l-2,-10l-4,-14l-3,-8l0,-7l-2,0l-3,-14l-3,-7l-2,-5l-3,-12l-1,-1l0,-6l-2,0l0,-4l-3,-1l0,-4l-2,-1l-3,-10l-3,-7l-1,-5l-3,-2l-3,-12l-3,-4l-4,-10l-3,-3l-3,-10l-3,-2l-5,-10l-6,-10l-6,-13l-2,-1l-5,-10l-1,-5l-2,0l-1,-5l-3,-1l-3,-7l-3,-3l-5,-10l-10,-13l-2,-4l-5,-5l0,-2z" fill="#9A002E" id="svg_20" transform="translate(1567,538)"/>
  <path d="m0,0l1,0l1,13l-1,14l-2,18l-3,20l-2,10l-4,19l-1,9l-4,5l-10,7l-9,6l-2,2l-4,1l-2,2l1,-5l5,-11l2,-6l8,-21l7,-19l10,-31l8,-27l1,-6z" fill="#9B002E" id="svg_21" transform="translate(1047,667)"/>
  <path d="m0,0l2,0l1,4l-3,0l-1,4l-6,5l-1,2l-2,0l-3,3l-4,1l-1,3l-2,0l-2,4l-2,3l-3,-1l0,3l-7,3l-1,3l-4,3l-5,1l-1,2l-2,0l0,2l-3,3l-8,3l-4,4l-6,4l-1,2l-2,0l-1,3l-3,1l-3,3l-8,0l-1,3l-5,4l-3,0l0,2l-4,0l0,3l-7,3l-3,0l-1,2l-7,6l-6,4l-9,2l-4,2l0,2l-7,1l-4,1l0,2l-17,6l-1,3l-10,4l-11,4l-6,2l-4,2l-10,3l-1,3l-14,7l-11,3l-1,1l-7,1l-2,2l-12,2l-4,1l-4,-1l-6,2l-6,1l0,-2l4,-2l7,-1l1,-1l7,-1l4,-1l1,-3l5,1l0,-2l7,-1l5,-3l12,-4l5,0l0,-2l7,-2l16,-6l6,-2l1,-2l9,-3l8,-4l3,-2l5,0l0,-2l7,-1l0,-2l5,-2l2,-2l5,-1l3,-3l10,-6l4,-1l2,-2l7,-3l3,-3l9,-3l1,-3l8,-4l1,-2l4,0l0,-2l6,-1l1,-3l8,-4l10,-8l5,-3l3,-3l4,0l0,-2l7,-4l8,-7l3,-3l5,-3l5,-5l7,-4l4,-5l4,-1l6,-7l4,-3z" fill="#9A002E" id="svg_22" transform="translate(1464,1501)"/>
  <path d="m0,0l4,0l0,2l-5,3l-11,7l-17,11l-17,12l-12,7l-21,14l-7,4l-9,6l-19,12l-5,4l-11,6l-15,10l-5,2l-6,2l0,2l-20,12l-14,9l-7,5l-12,6l-15,10l-11,7l-10,7l-5,3l-5,4l-11,6l-16,9l-16,8l-11,6l-19,12l-2,0l0,-2l2,0l0,-2l7,-6l2,0l1,-2l7,-2l6,-6l8,-3l6,-3l4,0l0,-2l5,0l-1,-3l7,-4l7,-2l5,-2l1,-3l3,-1l2,1l0,-2l2,0l1,-4l10,-5l5,0l1,-3l6,-4l5,-5l7,-5l6,0l0,-2l5,-3l2,-2l9,-3l5,-6l3,0l0,-2l5,-5l8,-4l9,-5l9,-3l0,-2l7,-1l0,-2l6,-2l1,-3l4,0l0,-2l12,-7l9,-3l0,-2l5,-2l0,-3l9,-6l4,0l1,-5l2,0l0,-2l13,-2l1,-3l10,-5l2,0l0,-3l6,-2l0,-3l6,-4l2,-2l9,-3l1,-2l3,0l0,-2l8,-4l5,-3l2,0l0,-3l6,-2l5,-6l1,-3l9,-2l5,-3l2,0l4,-4z" fill="#9B002E" id="svg_23" transform="translate(1344,700)"/>
  <path d="m0,0l2,0l-1,4l-5,4l-5,6l-11,9l-8,7l-11,9l-12,10l-3,1l-5,5l-4,3l-2,0l0,2l-6,3l-4,4l-12,8l-6,5l-10,6l-4,4l-5,3l-19,13l-16,10l-3,3l-14,9l-2,0l0,2l-9,5l-3,3l-27,18l-6,5l-3,-1l8,-7l1,-6l4,1l2,1l0,-2l6,-2l4,-4l5,-3l2,0l0,-2l3,-2l3,0l0,-2l5,-3l2,0l0,-2l3,0l1,-4l2,0l0,-3l7,-1l3,-3l5,-1l0,-2l5,-1l-1,-4l1,-2l4,-1l8,-4l3,-3l3,0l1,-2l3,-3l6,-2l1,-2l3,0l1,-4l10,-4l4,-4l4,-1l1,-4l13,-7l4,-7l3,0l0,2l5,-3l2,0l0,-2l2,-1l4,-8l8,-4l6,-1l1,-3l4,-3l2,0l2,-4l7,-6l5,-2l-1,-3l5,-3l7,-7l2,-1l1,-4l4,-2l3,0l0,-2l2,-1z" fill="#9B002E" id="svg_24" transform="translate(1564,538)"/>
  <path d="m0,0l1,4l-2,1l-1,3l-2,0l-2,5l-2,2l-2,5l-5,4l-2,5l-8,9l-3,7l-4,2l-6,9l-6,7l-8,10l-5,5l-3,5l-8,7l-7,8l-3,3l-1,3l-3,0l-1,4l-19,19l-8,6l-2,4l-6,3l-6,8l-6,4l-4,5l-3,0l-5,5l-5,6l-4,2l0,-5l2,0l0,-2l8,-5l2,-3l4,-5l7,-4l3,-2l2,-4l3,-3l4,-3l5,-5l6,-5l2,0l0,-2l2,0l0,-2l5,-2l1,-4l3,-3l5,-4l2,-4l9,-9l2,0l4,-8l3,0l0,-2l3,0l2,-5l1,-3l2,0l0,-2l4,-3l2,-4l3,0l2,-7l3,0l4,-8l2,-1l3,-10l6,-5l1,-2l3,-1l3,-5l2,0l1,-7l8,-7l1,-3l2,0l2,-6l6,-4l1,-1z" fill="#9B002E" id="svg_25" transform="translate(1664,1434)"/>
  <path d="m0,0l10,0l15,2l3,4l0,8l3,14l5,10l6,6l0,2l-11,4l-13,1l-10,-2l-8,-4l-7,-6l-7,-11l-1,-3l0,-16l2,-5l5,-3l8,-1zm1,4l-9,3l0,20l2,3l1,5l2,0l0,2l2,0l0,2l5,5l1,2l16,2l10,-4l-2,-9l-2,-18l-5,-4l-2,0l-1,-5l-4,-3l-7,-1l-7,0z" fill="#9B002E" id="svg_26" transform="translate(295,1109)"/>
  <path d="m0,0l3,0l3,0l0,3l-3,0l0,2l-13,5l-5,1l-1,3l-4,2l-4,0l0,2l-5,2l-3,0l0,3l-16,4l0,2l-10,3l-2,2l-10,3l-5,3l-12,3l-1,2l-5,2l-9,2l-4,0l0,2l-5,0l-1,2l-9,1l-1,2l-4,2l-8,1l-1,1l-11,2l-5,2l-1,1l-7,1l-1,1l-7,1l-8,3l-10,1l-1,1l-10,0l-1,3l-7,1l-13,0l0,-1l12,-2l1,-2l8,-2l7,-2l10,-1l4,-2l9,-1l5,-1l0,-1l9,-2l17,-4l0,-1l12,-3l5,-2l10,-3l10,-4l18,-4l1,-2l14,-5l3,-3l5,0l0,-2l13,-4l5,0l0,-2l4,-2l0,-2l7,-2l10,-4l6,-4l2,0l0,-2l7,-4l2,1l1,-2z" fill="#9B002E" id="svg_27" transform="translate(1371,1692)"/>
  <path d="m0,0l6,2l6,4l6,1l1,5l2,1l6,13l5,15l2,5l0,5l2,0l1,11l0,24l-1,2l0,22l1,3l0,16l3,8l0,8l2,6l2,0l4,8l2,3l1,4l1,5l4,2l5,3l7,6l11,7l14,5l6,1l-1,2l-11,-2l-20,-7l-15,-13l-5,-6l-6,-10l-4,-13l-1,-5l-3,-17l0,-6l-1,-6l0,-19l1,-10l1,-21l-2,-9l-5,-17l-6,-15l-7,-10l-9,-7l-5,-3l0,-1z" fill="#9B002E" id="svg_28" transform="translate(369,832)"/>
  <path d="m0,0l6,0l-3,1l-1,3l-12,1l-2,1l-16,0l-1,3l-21,1l-1,1l-26,1l-1,1l-89,0l-1,-1l-24,-1l-3,-1l-20,-1l-2,-2l-16,-1l-2,-1l-9,-1l-1,-2l7,0l15,2l5,0l5,-1l3,2l0,2l25,0l16,1l7,1l1,1l75,0l2,-1l26,-1l14,-3l14,0l4,-2l5,-1l9,0l12,-2z" fill="#9A002E" id="svg_29" transform="translate(1137,1770)"/>
  <path d="m0,0l2,1l-10,7l-6,4l-7,4l-5,4l-14,8l-5,3l-5,0l-9,6l-10,5l-17,9l-6,4l-10,4l-7,5l-6,2l-8,5l-7,3l-6,4l-6,2l-16,8l-15,7l-9,4l-4,-1l5,-3l10,-4l5,-3l6,-2l6,-3l9,-6l8,-2l0,-2l8,-4l3,-1l0,-2l8,-2l3,-2l5,0l1,-3l6,-4l4,0l0,-2l7,-1l2,-3l3,0l0,-2l7,-3l6,-5l6,1l0,-2l11,-5l2,0l0,-2l7,-4l5,-1l11,-7l7,-3l3,-1l1,-5l4,0l0,-2l5,-1l3,-3l9,-4z" fill="#9B002E" id="svg_30" transform="translate(1011,907)"/>
  <path d="m0,0l2,0l-2,4l-5,5l-6,4l-9,8l-7,4l-5,5l-7,4l-4,2l-5,5l-3,1l-3,3l-3,2l-3,0l-1,3l-9,5l-4,3l-4,0l-2,4l-6,4l-5,1l-1,3l-15,8l-9,5l-2,2l-6,2l0,-3l0,-4l9,0l1,-4l5,-2l8,-4l5,-3l7,-3l2,-2l5,-1l1,-4l8,-5l7,-3l3,-1l3,-3l6,-5l5,-2l3,-5l1,-3l11,-3l0,-2l7,-2l1,-3l7,-4l2,0l1,-5l5,-2l3,-5l5,-2l3,-2z" fill="#9B002E" id="svg_31" transform="translate(1509,1603)"/>
  <path d="m0,0l7,0l15,2l5,0l5,-1l3,2l0,2l25,0l16,1l7,1l2,2l82,1l0,1l-89,0l-1,-1l-24,-1l-3,-1l-20,-1l-2,-2l-16,-1l-2,-1l-9,-1l-1,-2z" fill="#A4002E" id="svg_32" transform="translate(892,1772)"/>
  <path d="m0,0l6,0l14,4l9,3l15,4l9,4l11,3l5,1l3,1l0,3l7,1l7,3l10,3l0,2l4,1l4,0l5,3l0,2l7,1l1,3l4,1l8,3l0,2l2,1l-9,-2l-4,-3l-9,-3l0,-2l-2,0l0,-2l-6,0l-6,-2l-3,-3l-10,-3l-11,-5l-6,-2l-3,-2l-8,-1l0,-2l-5,0l-5,-3l-13,-3l-9,-4l-12,-2l-10,-4l0,-1z" fill="#9C002E" id="svg_33" transform="translate(1165,259)"/>
  <path d="m0,0l14,2l6,2l14,3l5,1l1,2l7,0l5,1l2,2l0,-2l7,2l7,3l3,2l9,2l0,1l-10,0l-5,-4l-22,-3l-7,-3l-21,-3l-11,-2l0,-2l-17,0l-3,-3l16,-1z" fill="#9B002E" id="svg_34" transform="translate(1082,237)"/>
  <path d="m0,0l13,1l0,2l14,0l1,1l12,1l12,2l2,2l9,1l1,1l7,1l0,2l-5,2l-5,-1l-9,-2l-3,0l0,-2l-11,-1l-10,-2l-7,0l-8,-2l-7,0l-4,-3l-4,-2l2,-1z" fill="#9A002E" id="svg_35" transform="translate(1116,222)"/>
  <path d="m0,0l2,1l0,2l-2,0l0,6l-3,9l-1,6l-2,0l-2,4l-2,7l-2,4l-3,12l-2,1l-3,9l-2,0l-1,5l-2,4l-2,-1l1,-7l5,-8l2,-5l2,-4l2,-3l-2,-1l2,-4l2,0l0,-6l4,-9l1,-7l1,-4l3,-2l4,-9z" fill="#9B002E" id="svg_36" transform="translate(1754,1251)"/>
  <path d="m0,0l8,0l1,1l10,1l1,3l6,0l1,1l17,3l0,2l6,0l8,3l0,2l3,1l-8,0l-4,-2l0,-2l-4,1l-16,-2l-10,-4l-6,-3l-8,0l-1,-3l-4,-1l0,-1z" fill="#9A002E" id="svg_37" transform="translate(1188,236)"/>
  <path d="m0,0l1,3l-7,12l-6,12l-3,4l-1,4l-3,0l-1,4l-3,7l-3,2l-3,5l-6,8l-2,5l-2,0l2,-7l2,0l1,-6l3,-1l1,-4l2,0l1,-3l2,0l-1,-4l3,-7l3,-3l2,0l6,-12l1,-3l2,0l2,-6l4,-6l3,-4z" fill="#9B002E" id="svg_38" transform="translate(1704,1368)"/>
  <path d="m0,0l1,0l0,6l-3,5l-3,8l-3,5l-2,0l-1,5l-5,13l-3,5l-2,0l1,-9l2,0l-1,-3l0,-3l1,-2l3,-1l4,-9l3,-6l2,0l1,-8l3,-5l2,-1z" fill="#9B002E" id="svg_39" transform="translate(1726,1321)"/>
  <path d="m0,0l1,0l1,7l0,8l-5,5l0,-2l-7,-1l-1,5l-1,0l0,-5l2,-6l2,-3l1,-5l7,-3z" fill="#AF0030" id="svg_40" transform="translate(1032,750)"/>
  <path d="m0,0l9,2l16,5l8,7l-3,0l-13,-3l-8,-3l-6,-1l-1,-2l-5,-3l3,-2z" fill="#9B002E" id="svg_41" transform="translate(741,1730)"/>
  <path d="m0,0l17,3l7,-1l6,1l-2,1l0,2l5,0l9,3l10,2l7,1l0,1l-8,1l-6,-2l-13,-3l-1,-1l-12,-2l-9,-1l-9,-3l-1,-2z" fill="#9B002E" id="svg_42" transform="translate(823,1758)"/>
  <path d="m0,0l7,0l15,2l5,0l5,-1l3,2l0,2l10,0l1,2l-16,0l-2,-2l-16,-1l-2,-1l-9,-1l-1,-2z" fill="#9B002E" id="svg_43" transform="translate(892,1772)"/>
  <path d="m0,0l7,1l1,3l12,1l2,2l9,3l9,1l4,4l-8,-1l-8,-2l0,-2l-8,-1l-7,-1l-8,-3l-5,-1l-1,-3l1,-1z" fill="#9C002E" id="svg_44" transform="translate(778,1744)"/>
  <path d="m0,0l2,4l-2,12l-1,1l-1,7l-2,0l0,9l-2,2l-1,6l-1,0l-1,-6l2,-2l1,-10l2,0l0,-16l3,-3l1,-4z" fill="#9B002E" id="svg_45" transform="translate(280,774)"/>
  <path d="m0,0l5,2l9,4l0,4l-10,-3l-5,-2l0,-3l1,-2z" fill="#9B002E" id="svg_46" transform="translate(722,1722)"/>
  <path d="m0,0l3,3l2,10l2,6l1,9l-3,-3l-2,-10l-2,-3l-1,-12z" fill="#9A002E" id="svg_47" transform="translate(1774,814)"/>
  <path d="m0,0l9,1l0,3l3,-1l1,3l8,1l0,2l-5,1l-10,-4l0,-3l-5,-1l-1,-2z" fill="#9B002E" id="svg_48" transform="translate(685,1709)"/>
  <path d="m0,0l6,0l0,2l6,2l6,5l-4,1l-2,-4l-9,-2l-3,-2l0,-2z" fill="#9C002E" id="svg_49" transform="translate(1297,308)"/>
  <path d="m0,0m-3,1l3,1l-8,5l-3,1l1,-4l7,-3z" fill="#9E002E" id="svg_50" transform="translate(774,1027)"/>
 </g>
</svg>