<?xml version="1.0" standalone="no"?><!DOCTYPE svg PUBLIC "-//W3C//DTD SVG 1.1//EN" "http://www.w3.org/Graphics/SVG/1.1/DTD/svg11.dtd"><svg t="1740930063124" class="icon" viewBox="0 0 1024 1024" version="1.1" xmlns="http://www.w3.org/2000/svg" p-id="4783" xmlns:xlink="http://www.w3.org/1999/xlink" width="81" height="81"><path d="M593.720218 160.10922a172.204946 172.204946 0 0 1-81.486998 10.185874A172.204946 172.204946 0 0 1 430.746221 160.10922h2.22816c55.385694-31.830859 46.473054-95.492576 46.473054-127.323435a31.830859 31.830859 0 1 1 65.571569 0c0 31.830859-7.957715 95.492576 44.881511 124.140349h2.22816a1.909852 1.909852 0 0 1 1.591543 3.183086z" fill="#8A9954" p-id="4784"></path><path d="M816.854538 573.910384a92.946108 92.946108 0 0 0-7.957715-8.912641c-97.084119-95.492576-95.492576-174.751415-95.492576-259.421499A145.785333 145.785333 0 0 0 567.618914 160.10922H456.529217a145.785333 145.785333 0 0 0-145.467025 144.19379c0 84.670084 0 162.019071-95.492576 259.10319a101.540439 101.540439 0 0 0-7.957715 8.594332 270.5623 270.5623 0 0 0 201.489336 451.998195H615.683511A270.5623 270.5623 0 0 0 816.854538 573.910384z" fill="#FEBD59" p-id="4785"></path><path d="M715.314099 743.88717c0 141.329013-65.889878 254.64687-147.058568 254.64687h-66.844803V183.027438h41.061807c43.608277 0 79.258838 61.751866 79.258839 137.50931s0 153.106431 51.8843 244.779304c1.591543 2.864777 3.183086 5.729555 4.45632 8.276023a377.195676 377.195676 0 0 1 37.242105 170.295095z" fill="#FE9105" p-id="4786"></path><path d="M611.863808 678.3156v99.31228c0 75.439135-49.337831 136.872693-110.45308 136.872693V542.079525a101.222131 101.222131 0 0 1 78.303912 40.106882 155.971208 155.971208 0 0 1 32.149168 96.129193z" fill="#d81e06" p-id="4787" data-spm-anchor-id="a313x.search_index.0.i0.6ab73a81eJsEJ6" class="selected"></path><path d="M283.369345 633.115781m-41.698425 0a41.698425 41.698425 0 1 0 83.39685 0 41.698425 41.698425 0 1 0-83.39685 0Z" fill="#FECF70" p-id="4788"></path></svg>